<svg xmlns="http://www.w3.org/2000/svg" xmlns:xlink="http://www.w3.org/1999/xlink" width="1024" zoomAndPan="magnify" viewBox="0 0 768 767.999994" height="1024" preserveAspectRatio="xMidYMid meet" version="1.0"><defs><clipPath id="0017b27822"><path d="M 24.226562 88.535156 L 743.476562 88.535156 L 743.476562 679.535156 L 24.226562 679.535156 Z M 24.226562 88.535156 " clip-rule="nonzero"/></clipPath><clipPath id="e590df3ef6"><path d="M 324 384 L 412 384 L 412 457.5 L 324 457.5 Z M 324 384 " clip-rule="nonzero"/></clipPath><clipPath id="05da8138cb"><path d="M 418 387 L 443.949219 387 L 443.949219 454 L 418 454 Z M 418 387 " clip-rule="nonzero"/></clipPath></defs><g clip-path="url(#0017b27822)"><path fill="#ff914d" d="M 640.996094 165.601562 L 535.445312 165.601562 L 504.226562 126.804688 C 484.613281 102.492188 455.453125 88.535156 424.1875 88.535156 L 343.8125 88.535156 C 312.59375 88.535156 283.386719 102.492188 263.820312 126.804688 L 232.601562 165.601562 L 127 165.601562 C 70.414062 165.601562 24.328125 211.6875 24.328125 268.277344 L 24.328125 576.78125 C 24.328125 633.417969 70.414062 679.453125 127 679.453125 L 640.996094 679.453125 C 697.632812 679.453125 743.671875 633.367188 743.671875 576.78125 L 743.671875 268.277344 C 743.671875 211.6875 697.585938 165.601562 640.996094 165.601562 Z M 692.308594 576.78125 C 692.308594 605.074219 669.292969 628.09375 640.996094 628.09375 L 127 628.09375 C 98.707031 628.09375 75.6875 605.074219 75.6875 576.78125 L 75.6875 268.277344 C 75.6875 239.984375 98.707031 216.964844 127 216.964844 L 244.828125 216.964844 C 252.597656 216.964844 259.9375 213.414062 264.828125 207.371094 L 303.816406 159.082031 C 313.597656 146.898438 328.179688 139.945312 343.8125 139.945312 L 424.234375 139.945312 C 439.867188 139.945312 454.445312 146.898438 464.230469 159.082031 L 503.171875 207.421875 C 508.0625 213.464844 515.398438 217.011719 523.167969 217.011719 L 640.996094 217.011719 C 669.292969 217.011719 692.308594 240.03125 692.308594 268.324219 Z M 384 242.714844 C 284.824219 242.714844 204.164062 323.378906 204.164062 422.554688 C 204.164062 521.726562 284.824219 602.390625 384 602.390625 C 483.171875 602.390625 563.835938 521.726562 563.835938 422.554688 C 563.835938 323.378906 483.171875 242.714844 384 242.714844 Z M 384 550.980469 C 313.167969 550.980469 255.523438 493.335938 255.523438 422.503906 C 255.523438 351.671875 313.167969 294.078125 384 294.078125 C 454.832031 294.078125 512.472656 351.722656 512.472656 422.554688 C 512.472656 493.382812 454.832031 550.980469 384 550.980469 Z M 384 550.980469 " fill-opacity="1" fill-rule="nonzero"/></g><g clip-path="url(#e590df3ef6)"><path fill="#ff914d" d="M 338.585938 384.023438 L 397.082031 384.023438 C 398.023438 384.023438 398.957031 384.117188 399.878906 384.300781 C 400.804688 384.484375 401.699219 384.753906 402.570312 385.117188 C 403.4375 385.476562 404.265625 385.917969 405.046875 386.441406 C 405.832031 386.964844 406.554688 387.558594 407.222656 388.222656 C 407.886719 388.890625 408.480469 389.613281 409.003906 390.398438 C 409.527344 391.179688 409.96875 392.007812 410.332031 392.875 C 410.691406 393.746094 410.960938 394.644531 411.144531 395.566406 C 411.328125 396.488281 411.421875 397.421875 411.421875 398.363281 L 411.421875 442.996094 C 411.421875 443.9375 411.328125 444.871094 411.144531 445.796875 C 410.960938 446.71875 410.691406 447.617188 410.332031 448.484375 C 409.96875 449.355469 409.527344 450.179688 409.003906 450.964844 C 408.480469 451.746094 407.886719 452.472656 407.222656 453.136719 C 406.554688 453.804688 405.832031 454.398438 405.046875 454.921875 C 404.265625 455.445312 403.4375 455.886719 402.570312 456.246094 C 401.699219 456.605469 400.804688 456.878906 399.878906 457.0625 C 398.957031 457.246094 398.023438 457.335938 397.082031 457.335938 L 338.585938 457.335938 C 337.644531 457.335938 336.710938 457.246094 335.789062 457.0625 C 334.863281 456.878906 333.96875 456.605469 333.097656 456.246094 C 332.226562 455.886719 331.402344 455.445312 330.621094 454.921875 C 329.835938 454.398438 329.113281 453.804688 328.445312 453.136719 C 327.78125 452.472656 327.1875 451.746094 326.664062 450.964844 C 326.140625 450.179688 325.699219 449.355469 325.335938 448.484375 C 324.976562 447.617188 324.707031 446.71875 324.523438 445.796875 C 324.335938 444.871094 324.246094 443.9375 324.246094 442.996094 L 324.246094 398.363281 C 324.246094 397.421875 324.335938 396.488281 324.523438 395.566406 C 324.707031 394.644531 324.976562 393.746094 325.335938 392.875 C 325.699219 392.007812 326.140625 391.179688 326.664062 390.398438 C 327.1875 389.613281 327.78125 388.890625 328.445312 388.222656 C 329.113281 387.558594 329.835938 386.964844 330.621094 386.441406 C 331.402344 385.917969 332.226562 385.476562 333.097656 385.117188 C 333.96875 384.753906 334.863281 384.484375 335.789062 384.300781 C 336.710938 384.117188 337.644531 384.023438 338.585938 384.023438 Z M 338.585938 384.023438 " fill-opacity="1" fill-rule="nonzero"/></g><g clip-path="url(#05da8138cb)"><path fill="#ff914d" d="M 435.453125 389.007812 L 418.402344 398.816406 L 418.402344 442.554688 L 435.464844 452.367188 C 440.019531 454.984375 443.757812 452.832031 443.757812 447.585938 L 443.757812 393.8125 C 443.746094 388.542969 440.019531 386.390625 435.453125 389.007812 Z M 435.453125 389.007812 " fill-opacity="1" fill-rule="nonzero"/></g></svg>