<svg xmlns="http://www.w3.org/2000/svg" xmlns:xlink="http://www.w3.org/1999/xlink" width="500" zoomAndPan="magnify" viewBox="0 0 375 374.999991" height="500" preserveAspectRatio="xMidYMid meet" version="1.0"><defs><g/></defs><g fill="#db4a2b" fill-opacity="1"><g transform="translate(41.116324, 199.554202)"><g><path d="M 26.9375 -46.78125 C 33.0625 -46.78125 38.242188 -45.582031 42.484375 -43.1875 C 46.734375 -40.789062 48.859375 -37.078125 48.859375 -32.046875 L 32.828125 -32.046875 C 32.828125 -33.722656 32.078125 -34.910156 30.578125 -35.609375 C 29.535156 -36.179688 28.238281 -36.46875 26.6875 -36.46875 C 22.519531 -36.46875 20.4375 -35.488281 20.4375 -33.53125 C 20.4375 -32.425781 21.160156 -31.640625 22.609375 -31.171875 C 24.054688 -30.710938 26.425781 -30.226562 29.71875 -29.71875 C 33.757812 -29.132812 37.132812 -28.453125 39.84375 -27.671875 C 42.5625 -26.890625 44.929688 -25.503906 46.953125 -23.515625 C 48.972656 -21.523438 49.984375 -18.738281 49.984375 -15.15625 C 49.984375 -9.320312 47.800781 -5.160156 43.4375 -2.671875 C 39.082031 -0.191406 33.378906 1.046875 26.328125 1.046875 C 22.285156 1.046875 18.472656 0.484375 14.890625 -0.640625 C 11.316406 -1.773438 8.398438 -3.523438 6.140625 -5.890625 C 3.890625 -8.253906 2.765625 -11.257812 2.765625 -14.90625 L 18.796875 -14.90625 L 18.796875 -14.546875 C 18.859375 -12.585938 19.679688 -11.21875 21.265625 -10.4375 C 22.859375 -9.65625 24.546875 -9.265625 26.328125 -9.265625 C 31.128906 -9.265625 33.53125 -10.390625 33.53125 -12.640625 C 33.53125 -13.796875 32.773438 -14.632812 31.265625 -15.15625 C 29.765625 -15.675781 27.3125 -16.226562 23.90625 -16.8125 C 19.8125 -17.5 16.445312 -18.242188 13.8125 -19.046875 C 11.1875 -19.859375 8.890625 -21.234375 6.921875 -23.171875 C 4.960938 -25.109375 3.984375 -27.804688 3.984375 -31.265625 C 3.984375 -36.867188 6.101562 -40.851562 10.34375 -43.21875 C 14.59375 -45.59375 20.125 -46.78125 26.9375 -46.78125 Z M 26.9375 -46.78125 "/></g></g></g><g fill="#db4a2b" fill-opacity="1"><g transform="translate(89.096105, 199.554202)"><g><path d="M 35.34375 -46.78125 C 41.519531 -46.78125 46.28125 -44.757812 49.625 -40.71875 C 52.976562 -36.675781 54.65625 -30.695312 54.65625 -22.78125 C 54.65625 -14.925781 52.976562 -8.988281 49.625 -4.96875 C 46.28125 -0.957031 41.519531 1.046875 35.34375 1.046875 C 30.03125 1.046875 25.753906 -0.6875 22.515625 -4.15625 L 22.515625 17.0625 L 5.28125 17.0625 L 5.28125 -45.734375 L 19.3125 -45.734375 L 20.796875 -39.234375 C 24.140625 -44.265625 28.988281 -46.78125 35.34375 -46.78125 Z M 29.96875 -34.046875 C 27.425781 -34.046875 25.519531 -33.148438 24.25 -31.359375 C 22.976562 -29.566406 22.34375 -27.226562 22.34375 -24.34375 L 22.34375 -21.484375 C 22.34375 -18.597656 22.976562 -16.242188 24.25 -14.421875 C 25.519531 -12.597656 27.425781 -11.6875 29.96875 -11.6875 C 34.9375 -11.6875 37.421875 -14.660156 37.421875 -20.609375 L 37.421875 -25.203125 C 37.421875 -31.097656 34.9375 -34.046875 29.96875 -34.046875 Z M 29.96875 -34.046875 "/></g></g></g><g fill="#db4a2b" fill-opacity="1"><g transform="translate(141.925919, 199.554202)"><g><path d="M 27.8125 -46.78125 C 34.789062 -46.78125 40.472656 -45.609375 44.859375 -43.265625 C 49.253906 -40.929688 51.453125 -37.132812 51.453125 -31.875 L 51.453125 -14.03125 C 51.453125 -13.050781 51.679688 -12.242188 52.140625 -11.609375 C 52.609375 -10.972656 53.304688 -10.65625 54.234375 -10.65625 L 57.34375 -10.65625 L 57.34375 -0.6875 C 57.175781 -0.570312 56.726562 -0.382812 56 -0.125 C 55.28125 0.132812 54.253906 0.394531 52.921875 0.65625 C 51.597656 0.914062 50.070312 1.046875 48.34375 1.046875 C 44.988281 1.046875 42.226562 0.539062 40.0625 -0.46875 C 37.894531 -1.488281 36.410156 -2.890625 35.609375 -4.671875 C 33.410156 -2.941406 30.953125 -1.554688 28.234375 -0.515625 C 25.523438 0.523438 22.351562 1.046875 18.71875 1.046875 C 7.96875 1.046875 2.59375 -3.226562 2.59375 -11.78125 C 2.59375 -16.226562 3.789062 -19.617188 6.1875 -21.953125 C 8.582031 -24.296875 12.03125 -25.898438 16.53125 -26.765625 C 21.039062 -27.628906 26.9375 -28.0625 34.21875 -28.0625 L 34.21875 -30.3125 C 34.21875 -32.101562 33.59375 -33.460938 32.34375 -34.390625 C 31.101562 -35.316406 29.503906 -35.78125 27.546875 -35.78125 C 25.753906 -35.78125 24.207031 -35.460938 22.90625 -34.828125 C 21.613281 -34.191406 20.96875 -33.179688 20.96875 -31.796875 L 20.96875 -31.4375 L 3.984375 -31.4375 C 3.921875 -31.726562 3.890625 -32.132812 3.890625 -32.65625 C 3.890625 -36.988281 5.953125 -40.425781 10.078125 -42.96875 C 14.210938 -45.507812 20.125 -46.78125 27.8125 -46.78125 Z M 34.21875 -19.921875 C 29.3125 -19.921875 25.6875 -19.382812 23.34375 -18.3125 C 21.007812 -17.25 19.84375 -15.820312 19.84375 -14.03125 C 19.84375 -11.144531 21.804688 -9.703125 25.734375 -9.703125 C 27.984375 -9.703125 29.957031 -10.304688 31.65625 -11.515625 C 33.363281 -12.734375 34.21875 -14.238281 34.21875 -16.03125 Z M 34.21875 -19.921875 "/></g></g></g><g fill="#db4a2b" fill-opacity="1"><g transform="translate(194.75573, 199.554202)"><g><path d="M 33 -46.859375 C 34.332031 -46.859375 35.515625 -46.695312 36.546875 -46.375 C 37.585938 -46.0625 38.109375 -45.878906 38.109375 -45.828125 L 38.109375 -31.359375 L 32.578125 -31.359375 C 28.992188 -31.359375 26.40625 -30.429688 24.8125 -28.578125 C 23.226562 -26.734375 22.4375 -23.992188 22.4375 -20.359375 L 22.4375 0 L 5.203125 0 L 5.203125 -45.734375 L 19.3125 -45.734375 L 20.4375 -38.8125 C 21.476562 -41.46875 23.125 -43.472656 25.375 -44.828125 C 27.632812 -46.179688 30.175781 -46.859375 33 -46.859375 Z M 33 -46.859375 "/></g></g></g><g fill="#db4a2b" fill-opacity="1"><g transform="translate(228.272048, 199.554202)"><g><path d="M 37.078125 -45.734375 L 57.171875 -45.734375 L 40.28125 -27.28125 L 57.609375 0 L 38.03125 0 L 28.40625 -15.671875 L 22.4375 -9.875 L 22.4375 0 L 5.203125 0 L 5.203125 -62.890625 L 22.4375 -62.890625 L 22.4375 -28.234375 Z M 37.078125 -45.734375 "/></g></g></g><g fill="#db4a2b" fill-opacity="1"><g transform="translate(281.101867, 199.554202)"><g><path d="M 5.28125 0 L 5.28125 -17.234375 L 23.65625 -17.234375 L 23.65625 0 Z M 5.28125 0 "/></g></g></g><g fill="#db4a2b" fill-opacity="1"><g transform="translate(305.007631, 199.554202)"><g/></g></g></svg>